<svg id="Capa_1" xmlns="http://www.w3.org/2000/svg" viewBox="0 0 43 43"><style>.st0{fill:#A4D835;} .st1{fill:#FFFFFF;}</style><circle class="st0" cx="21.5" cy="21.5" r="20.3"/><path class="st1" d="M17.1 23.3h-1.2c-.2 0-.3.1-.4.2l-3.6 3.6v-3.2c0-.3-.3-.6-.6-.6H9.4c-.1 0-.2-.1-.2-.2v-11c0-.1.1-.2.2-.2h18.3c.1 0 .2.1.2.2v4.2c0 .4.3.6.6.6.4 0 .6-.3.6-.6v-4.2c0-.8-.7-1.5-1.5-1.5H9.4c-.8 0-1.5.7-1.5 1.5v11c0 .8.7 1.5 1.5 1.5h1.2v4.1c0 .3.2.5.4.6h.2c.2 0 .3-.1.5-.2l4.5-4.5h.9c.4 0 .6-.3.6-.6.1-.4-.2-.7-.6-.7z"/><path class="st1" d="M33.6 18.4H20.8c-.8 0-1.5.7-1.5 1.5v7.5c0 .8.7 1.5 1.5 1.5h8l3.3 3.3c.1.1.3.2.5.2h.2c.2-.1.4-.3.4-.6V29h.4c.8 0 1.5-.7 1.5-1.5V20c.1-.9-.6-1.6-1.5-1.6zm.3 9.1c0 .1-.1.2-.2.2h-1.1c-.3 0-.6.3-.6.6v1.9l-2.3-2.3c-.1-.1-.3-.2-.4-.2H21c-.1 0-.2-.1-.2-.2V20c0-.1.1-.2.2-.2h12.8c.1 0 .2.1.2.2v7.5h-.1z"/><path class="st1" d="M27.2 23.1c-.4 0-.6.3-.6.6s.3.6.6.6c.4 0 .6-.3.6-.6s-.2-.6-.6-.6zm-14.5-8.3c-.4 0-.6.3-.6.6 0 .4.3.6.6.6h11.7c.4 0 .6-.3.6-.6 0-.4-.3-.6-.6-.6H12.7zm4.4 4.3h-4.5c-.4 0-.6.3-.6.6s.3.6.6.6h4.5c.4 0 .6-.3.6-.6.1-.3-.2-.6-.6-.6zm7.1 4c-.4 0-.6.3-.6.6s.3.6.6.6c.4 0 .6-.3.6-.6s-.2-.6-.6-.6zm6 0c-.4 0-.6.3-.6.6s.3.6.6.6c.4 0 .6-.3.6-.6s-.2-.6-.6-.6z"/></svg>