<svg id="Capa_1" xmlns="http://www.w3.org/2000/svg" xmlns:xlink="http://www.w3.org/1999/xlink" viewBox="0 0 35 35"><circle class="st0" cx="17.5" cy="17.5" r="15.6"/><defs><path id="SVGID_1_" d="M7.8 8.7h18.4v18.1H7.8z"/></defs><clipPath id="SVGID_2_"><use xlink:href="#SVGID_1_" overflow="visible"/></clipPath><path class="st1" d="M11.4 15.8c.4 0 .7-.1 1.1-.2l2.1 2.1 2.3-2.3-2.1-2.1c.4-1.3.1-2.6-.9-3.6-.7-.7-1.5-1-2.5-1-.5 0-1.1.1-1.5.3-.1 0-.1.1-.1.2s0 .2.1.2l2.2 2.2c.2.2.3.4.3.6 0 .2-.1.4-.3.6-.3.3-.9.3-1.2 0l-2.2-2.2c-.1-.1-.1-.1-.2-.1s-.1.1-.2.1c-.6 1.3-.4 3 .7 4 .6.8 1.5 1.2 2.4 1.2zm0 0M22.5 19.8c-.4 0-.7.1-1.1.2l-2.3-2.3-2.3 2.3 2.3 2.3c-.4 1.3-.1 2.6.9 3.6.7.7 1.5 1 2.5 1 .5 0 1.1-.1 1.5-.3.1 0 .1-.1.1-.2s0-.2-.1-.2L21.8 24c-.2-.2-.2-.4-.3-.6 0-.2.1-.4.3-.6.3-.3.9-.3 1.2 0l2.2 2.2c.1.1.1.1.2.1s.1-.1.2-.1c.6-1.3.4-3-.7-4-.5-.8-1.4-1.2-2.4-1.2zm0 0"/><path class="st1" d="M21.6 14.6s.4.3.7.2c.4-.2 1.4.8 1.7 1l-.2.2c-.2.2-.2.6 0 .8.2.2.6.2.8 0l1.4-1.4c.2-.2.2-.6 0-.8-.2-.2-.6-.2-.8 0l-.2.2c-.2-.3-.5-.7-.5-.9.2-.6-1.2-2.2-1.2-2.2C20 8.5 17.9 8.6 16.8 9c-.4.1-.3.2.1.3 3.2.6 3.6 2.4 3 3.1-.2.3.1.6.1.6l.1.1-5.3 5.3c.1 0 .1.1.2.2l.9.9.2.2 5.3-5.3.2.2zm0 0M14.6 19c-.2-.2-.5-.2-.7 0L8 24.3c-.2.2-.2.5 0 .7l1.6 1.6c.2.2.5.2.7 0l5.3-5.9c.2-.2.2-.5 0-.7l-1-1zm0 0"/></svg>